HIERARCHY
ROOT hip
{
	OFFSET 0.000000 0.000000 0.000000 
	CHANNELS 6 Xposition Yposition Zposition Xrotation Zrotation Yrotation
	JOINT abdomen
	{
		OFFSET 0.000000 3.402643 0.000000 
		CHANNELS 3 Xrotation Zrotation Yrotation
		JOINT chest
		{
			OFFSET 0.000000 8.438565 -0.680529 
			CHANNELS 3 Xrotation Zrotation Yrotation
			JOINT neck
			{
				OFFSET 0.000000 10.207942 -0.272212 
				CHANNELS 3 Xrotation Zrotation Yrotation
				JOINT head
				{
					OFFSET 0.000000 3.130431 0.000000 
					CHANNELS 3 Xrotation Zrotation Yrotation
					End Site
					{
						OFFSET 0.000000 3.130435 0.000000 
					}
				}
			}
			JOINT lCollar
			{
				OFFSET 3.470700 6.669187 -0.816635 
				CHANNELS 3 Yrotation Zrotation Xrotation
				JOINT lShldr
				{
					OFFSET 3.198488 0.000000 0.000000 
					CHANNELS 3 Zrotation Yrotation Xrotation
					JOINT lForeArm
					{
						OFFSET 10.139888 0.000000 0.000000 
						CHANNELS 3 Yrotation Zrotation Xrotation
						JOINT lHand
						{
							OFFSET 8.370511 0.000000 0.000000 
							CHANNELS 3 Zrotation Yrotation Xrotation
							End Site
							{
								OFFSET 4.083176 0.000000 0.000000 
							}
						}
					}
				}
			}
			JOINT rCollar
			{
				OFFSET -3.470700 6.669187 -0.816635 
				CHANNELS 3 Yrotation Zrotation Xrotation
				JOINT rShldr
				{
					OFFSET -3.198488 0.000000 0.000000 
					CHANNELS 3 Zrotation Yrotation Xrotation
					JOINT rForeArm
					{
						OFFSET -10.139888 0.000000 0.000000 
						CHANNELS 3 Yrotation Zrotation Xrotation
						JOINT rHand
						{
							OFFSET -8.370511 0.000000 0.000000 
							CHANNELS 3 Zrotation Yrotation Xrotation
							End Site
							{
								OFFSET -4.083176 0.000000 0.000000 
							}
						}
					}
				}
			}
		}
	}
	JOINT lThigh
	{
		OFFSET 5.308129 -1.633274 1.361059 
		CHANNELS 3 Xrotation Zrotation Yrotation
		JOINT lShin
		{
			OFFSET -2.041588 -20.007561 0.000000 
			CHANNELS 3 Xrotation Zrotation Yrotation
			JOINT lFoot
			{
				OFFSET 0.000000 -19.190928 -1.224953 
				CHANNELS 3 Xrotation Yrotation Zrotation
				End Site
				{
					OFFSET 0.000000 -2.449906 4.627600 
				}
			}
		}
	}
	JOINT rThigh
	{
		OFFSET -5.308129 -1.633274 1.361059 
		CHANNELS 3 Xrotation Zrotation Yrotation
		JOINT rShin
		{
			OFFSET 2.041588 -20.007561 0.000000 
			CHANNELS 3 Xrotation Zrotation Yrotation
			JOINT rFoot
			{
				OFFSET 0.000000 -19.190928 -1.224953 
				CHANNELS 3 Xrotation Yrotation Zrotation
				End Site
				{
					OFFSET 0.000000 -2.449906 4.627600 
				}
			}
		}
	}
}
MOTION
Frames: 18
Frame Time: 0.033333
-23.525208 49.944241 -8.054989 -0.018562 0.647163 -41.145676 0.000000 0.000000 0.000000 6.962691 3.407313 1.310923 9.135031 3.620767 17.164579 -1.274490 -0.197899 15.205153 -6.675262 -2.891658 6.862037 -71.874748 7.176879 -7.929220 -83.276184 -0.329926 47.085239 -21.497227 8.433826 -4.545746 15.976226 14.542325 4.513606 55.813881 -14.085621 28.596886 114.464577 -14.272062 22.939642 8.285913 -20.645857 -5.037475 -16.396639 16.718843 4.885310 23.872576 0.778983 1.149671 8.161748 -1.124794 -16.215658 -5.126297 -8.172565 -3.818033 19.870857 3.328831 -19.207827 -12.367092 -0.935541 8.563213 
-23.615231 49.939289 -7.640920 -1.446808 0.365512 -41.534229 0.000000 0.000000 0.000000 7.981128 2.714524 0.880232 9.819419 3.406517 17.140882 -1.628074 -0.197339 15.791086 -6.959544 -3.395431 7.752236 -69.814812 5.661432 -8.160870 -85.530853 -0.164302 44.474289 -21.266308 8.147492 -4.457685 15.214936 13.985787 5.680604 56.153992 -13.605171 28.946058 115.635048 -14.467734 23.347950 8.287896 -20.929022 -5.062696 -10.748322 15.823742 5.734777 12.988194 0.360379 -2.382971 9.326220 -1.264533 -15.819692 -3.475238 -9.379115 -4.650353 20.177670 3.452806 -17.496948 -13.029265 -1.022846 8.685094 
-23.530214 49.888245 -7.370610 -0.535934 0.158251 -42.558769 0.000000 0.000000 0.000000 7.894644 3.036650 0.997799 9.845805 3.750496 17.666533 -1.710581 -0.206240 16.269632 -7.025653 -2.917703 7.719394 -67.995117 4.037556 -9.022786 -87.363205 0.022819 43.352695 -23.070805 6.912158 -4.277493 15.176169 14.010328 5.576838 56.150520 -13.416105 29.203249 116.959068 -14.623872 23.247362 8.079254 -21.184216 -5.063113 -6.279152 16.453850 7.185985 0.894748 -0.068969 -6.414822 11.562274 -1.668277 -16.531544 -3.649753 -9.044574 -4.420094 19.719925 3.570646 -15.843557 -13.100984 -1.000002 8.633009 
-23.395906 49.818321 -7.007514 0.080183 -0.177076 -43.506142 0.000000 0.000000 0.000000 8.080030 3.183158 0.949057 9.988421 4.160070 18.066948 -1.579381 -0.504479 16.934208 -7.009061 -2.635005 7.912406 -65.457741 2.135687 -8.973165 -88.495377 0.106356 40.530727 -22.382519 6.570559 -4.171089 15.059686 14.185188 5.718520 56.076683 -13.147357 28.784719 118.070190 -14.584274 23.151567 8.365993 -21.168045 -5.102327 -6.552697 17.011444 7.140684 -0.739403 0.222270 -7.592979 9.920412 -1.478911 -16.942022 -3.660160 -8.958249 -4.387684 19.522449 3.657767 -14.820162 -13.051885 -1.046062 8.870161 
-23.153036 49.666595 -6.508733 0.438883 -0.231650 -44.043423 0.000000 0.000000 0.000000 8.274932 3.095530 0.606695 10.148934 4.483260 18.143948 -1.544138 -0.893334 17.658449 -7.470105 -2.893345 8.098822 -62.966579 0.263572 -9.489849 -89.810059 0.142474 37.430744 -21.987370 6.621118 -4.176682 14.666242 14.213641 5.934206 55.825996 -12.854683 28.566963 118.962021 -14.561874 23.825434 7.777518 -21.153032 -5.011358 -6.336836 16.596973 6.324716 -1.659169 1.249022 -5.347098 9.009519 -1.366882 -16.910276 -4.091297 -9.519773 -4.676313 20.408096 3.700343 -13.949378 -13.484466 -1.145150 9.549052 
-22.793398 49.526100 -6.028551 1.181865 -0.278743 -44.473366 0.000000 0.000000 0.000000 8.519272 3.144503 0.244844 10.274064 4.863732 18.154346 -1.913133 -1.177429 18.314369 -8.092321 -2.772592 8.336978 -60.926754 -1.963514 -9.925405 -90.097176 0.109238 31.582064 -20.101345 6.602511 -4.118726 14.058459 14.183739 6.210984 55.869511 -11.781733 28.156988 119.247139 -14.479506 23.938747 7.336723 -21.238455 -4.940012 -6.668586 16.626003 6.150919 -1.259085 1.454127 -3.388125 7.686843 -1.182333 -16.739368 -4.724292 -9.759557 -4.672867 20.808500 3.602801 -13.302772 -13.522044 -1.240789 10.265253 
-22.342754 49.466732 -5.560328 1.577543 -0.556744 -45.266445 0.000000 0.000000 0.000000 9.344916 3.095690 0.166301 10.740808 4.902958 18.409729 -2.699328 -0.851294 18.644653 -8.614912 -2.968979 9.078726 -59.362820 -5.289530 -11.645245 -88.854454 -0.182189 24.382704 -19.275972 6.107482 -3.976816 13.884987 14.442732 6.956571 55.448338 -10.522531 26.340313 119.207458 -13.868385 22.545633 7.712337 -21.089144 -4.988166 -7.361579 16.391571 5.977647 -0.097965 1.303271 -0.118763 8.161569 -1.106916 -15.307536 -4.823277 -10.192429 -4.976874 20.360464 3.720392 -12.594974 -12.838453 -1.229921 10.701057 
-21.875721 49.382339 -5.070935 1.076342 -0.454299 -46.027325 0.000000 0.000000 0.000000 10.522918 2.236322 0.136996 11.202435 4.391072 18.484598 -3.124192 -0.342073 18.789356 -9.104775 -3.531136 10.051868 -58.239979 -9.102696 -16.805048 -86.519470 -0.356409 23.608961 -25.282198 4.316468 -3.722119 13.368652 13.664362 8.292262 56.464291 -8.515738 25.004698 118.562180 -13.538518 23.055458 7.497195 -21.434017 -4.982306 -8.232701 15.068258 4.932524 2.389107 1.551812 3.901953 7.588950 -0.896112 -14.149566 -5.095438 -11.351040 -5.300928 20.905081 3.299496 -12.216697 -12.504998 -1.297674 11.605062 
-21.363478 49.280373 -4.584184 1.503705 -0.099807 -47.050877 0.000000 0.000000 0.000000 10.996467 1.699188 0.342226 11.596122 4.345528 18.816292 -3.701936 -0.590132 19.229568 -9.518610 -3.375429 10.423713 -58.195187 -12.501796 -20.499008 -83.287430 -0.590653 18.088398 -25.030643 4.580057 -3.774962 13.594804 13.630453 8.760711 57.296005 -7.282568 23.467783 117.954140 -12.948312 21.569395 5.756199 -20.765724 -4.657076 -11.968222 14.739908 3.961677 9.100719 1.452670 5.563025 4.323247 -0.477692 -13.600115 -6.179984 -12.134129 -5.385274 21.152094 3.232454 -11.928536 -11.913951 -1.300392 12.260248 
-20.797764 49.170212 -4.161784 1.818718 0.345871 -49.014832 0.000000 0.000000 0.000000 11.453308 1.074072 0.947465 12.401283 3.705386 19.720732 -4.652819 -0.588857 19.581110 -9.422930 -3.883026 10.757125 -57.741055 -15.677159 -25.006908 -80.319374 -0.741738 13.667048 -22.647715 6.629418 -4.192475 14.567808 13.696048 9.189995 57.925743 -5.804300 21.817293 117.673546 -12.446197 21.516310 5.263745 -20.649044 -4.573848 -14.462084 14.774474 3.907502 13.820596 0.810586 7.313533 2.009476 -0.175035 -13.004439 -7.410354 -13.208941 -5.477616 21.286196 3.231409 -9.531767 -11.486768 -1.267998 12.545023 
-20.252817 49.142685 -3.755862 2.114491 0.565677 -50.979961 0.000000 0.000000 0.000000 12.185695 0.693133 1.464973 12.749735 2.980691 20.585966 -4.158463 -0.432180 19.678259 -8.890968 -5.209764 11.277763 -56.655735 -19.201971 -30.128939 -78.017929 -0.794902 8.417581 -18.436480 8.793493 -4.446097 14.829926 13.388469 9.947821 58.632591 -3.061482 21.554594 117.223137 -12.281409 21.245829 4.536175 -20.703066 -4.470603 -15.737301 14.604365 3.890219 16.348604 0.508497 9.778807 0.914083 -0.048396 -12.444950 -7.323149 -13.893380 -5.384729 19.741579 2.996866 -5.574459 -11.043942 -1.243280 12.727431 
-19.779858 49.152039 -3.439167 2.658883 0.700069 -52.593391 0.000000 0.000000 0.000000 12.700959 0.478267 1.845802 13.172399 2.225950 21.521011 -4.217080 0.441348 19.688171 -8.712903 -6.408869 11.637709 -55.413902 -22.237146 -35.861080 -76.543106 -0.808604 2.582448 -14.052404 11.662222 -4.642282 14.749946 12.763421 10.567918 59.629456 0.051342 22.502600 116.773300 -12.564261 22.754854 5.307155 -20.754560 -4.576814 -16.826094 14.628826 3.863680 17.931423 0.330009 12.058655 0.338775 0.003866 -11.980443 -7.448202 -14.240932 -5.663298 18.199871 3.358370 -6.862490 -9.295225 -1.085446 13.154287 
-19.340176 49.172775 -3.189816 3.215647 1.253770 -53.543797 0.000000 0.000000 0.000000 12.808236 0.185465 1.699242 13.613092 1.521006 22.019890 -4.701089 1.009491 19.993538 -9.065517 -7.331287 11.602712 -53.813255 -24.618811 -42.748329 -75.720634 -0.848282 -1.782434 -11.441366 12.883953 -4.585877 14.475503 11.927814 10.822754 60.720287 3.026191 24.051035 116.226501 -12.943546 23.914810 6.022177 -19.948198 -4.639667 -17.924635 14.311997 3.513053 18.699636 0.367506 13.167904 -0.029134 0.035285 -11.722382 -7.353052 -15.047079 -6.872460 16.515802 4.028749 -14.630695 -6.070214 -0.780927 14.154578 
-18.965345 49.127235 -3.089171 3.659186 1.294398 -54.287846 0.000000 0.000000 0.000000 13.203918 0.029286 1.552739 14.209053 1.165332 22.329283 -4.983631 1.071313 20.345570 -9.092502 -7.331748 11.948723 -51.382889 -27.134201 -48.484379 -74.407906 -0.609897 -8.007805 -8.368061 10.381345 -4.172003 14.040442 11.170045 11.309491 61.571136 6.113547 25.760695 115.748650 -13.278484 23.741558 6.287880 -19.091522 -4.619647 -18.957605 14.427548 3.382850 19.892511 0.479967 13.697488 -0.417807 0.086074 -11.634415 -6.375396 -15.725706 -8.726935 15.277424 5.003742 -25.255182 -2.764014 -0.406653 14.919380 
-18.631649 49.021435 -3.125457 4.061233 1.148654 -55.192318 0.000000 0.000000 0.000000 13.650696 -0.058571 1.611327 14.907069 1.035636 22.757923 -5.413909 0.346455 20.996517 -8.960565 -7.397288 12.351213 -46.306690 -29.465252 -51.464855 -71.180779 0.048850 -20.812304 -1.761676 4.414305 -3.495606 14.033565 10.884239 11.765180 61.462490 9.017660 26.859833 116.398346 -13.666080 25.523119 8.523099 -20.172421 -5.035365 -20.043135 14.917215 3.459986 21.502432 0.458487 14.572238 -0.831695 0.090113 -11.606566 -4.384397 -15.756138 -9.867979 14.183903 4.954044 -29.188456 -1.819932 -0.294740 16.000105 
-18.393833 48.893753 -3.262159 4.278456 1.200263 -56.395683 0.000000 0.000000 0.000000 14.033798 -0.283055 1.855446 15.312720 0.357917 23.613831 -5.595541 0.655620 21.183205 -8.249704 -7.421456 12.717149 -38.825665 -31.139902 -56.238895 -66.758743 1.140863 -28.618481 0.083116 2.950075 -3.506474 13.950486 9.881178 12.274944 62.186565 11.909663 29.385817 116.354706 -14.280729 25.436846 7.711649 -19.398966 -4.845114 -20.865110 15.416683 3.524163 22.794502 0.475892 15.327814 -1.143800 0.172058 -11.911143 -2.510010 -16.018919 -10.864157 12.965998 4.779947 -28.607357 -1.791769 -0.288119 16.996836 
-18.222452 48.716255 -3.570925 4.384809 0.408838 -58.000305 0.000000 0.000000 0.000000 14.974044 -0.360965 2.568370 16.089676 -0.008876 24.648438 -5.623944 0.655272 21.261322 -7.211067 -6.945998 13.635437 -30.244982 -32.590538 -60.150814 -60.205147 2.517188 -38.121967 4.085683 0.067461 -3.549121 14.239568 9.653494 13.176922 61.805698 14.492068 31.188488 116.445694 -14.740357 24.777527 6.727237 -18.655775 -4.641363 -21.062609 16.746424 4.159326 24.587755 0.464037 15.444644 -1.697793 0.220325 -12.416690 -0.371899 -15.612994 -10.881012 11.764936 3.979661 -26.928057 -1.910917 -0.337721 18.168188 
-18.085993 48.433544 -3.904315 4.158414 0.695936 -58.913235 0.000000 0.000000 0.000000 15.290086 -0.897458 2.676065 16.616177 -0.513378 24.991261 -5.889382 0.245203 21.572477 -6.613254 -6.596814 13.968840 -21.348721 -32.685574 -63.710480 -53.013218 4.231349 -46.004910 5.478716 -1.688234 -3.711334 14.301897 8.943369 13.628742 61.616306 16.420805 33.285034 116.480232 -15.329305 24.725710 6.232735 -18.606131 -4.579322 -22.135275 17.165001 4.280895 26.445581 0.352857 15.418299 -2.274728 0.310910 -12.960202 0.028165 -16.559273 -10.987087 12.583905 3.207674 -23.957392 -3.209683 -0.569806 19.842411 
